<svg xmlns="http://www.w3.org/2000/svg" id="svg2" width="285" height="268" viewBox="0 0 285 268"><g id="g8" transform="translate(-8 -16)"><g id="g301"><path id="path313" d="M103 283h2l2 1h-5zm94 0h3l1 1h-5zm-113-1h2l2 1h-5Zm131 0h3l1 1h-5zm-145-1h2v1zh-1zm-13-1h2v1zh-2zm185 0h2l2 1h-5Zm30-11 3-4 4-2-3 3zm-161-14h3l1 1h-6zm77 0h2l2 1h-5zm-101-1h3l1 1h-5zm123 0h3l1 1h-5zm-138-1h2v1zh-1zm156 0h2v1zh-1zm-168-1h2v1zh-1zm-49-15v-1zv2h-1zm278-6v-1zv2h-1zm-279-6v-1zv2H9zm28-2v-1zv2h-1zm224-6v-2l1 1v2l-1 2zM9 212v-3l1 1v3l-1 2Zm28-5v-3l1 1v4l-1 2zm254 0v-3l1 1v4l-1 2Zm-141-10-1-1zl1 1zm11-5-1-1zl2 2zM8 191v-3l1 1v3l-1 2Zm284-5v-7l1 3v7l-1 4zM36 171v-15l1 7v15l-1 7zm228 7v-5l1 2v5l-1 2zm-115 0h2l2 1h-5Zm115-18v-5l1 2v5l-1 2zm28-8v-7l1 3v8l-1 4zM8 151v-4l1 2v4l-1 2Zm167-12v-3l1 1v4l-1 2zm-138-4v-3l1 1v3l-1 1zm226 0v-2l1 1v2l-1 2zm28-3v-2l1 1v2l-1 2zM9 130v-2l1 1v2l-1 2zm169 1 2-2 2-1-2 1zm84-10v-2l1 1v2l-1 2zm-224-2v-3l1 1v3l-1 2zm252-1v-1zv2h-1zm-280-3v-1zv2H9zm279-8v-2l1 1v2l-1 2zm-278-4v-2zv2h-1zm53-19h2v1zh-1Zm173 0h2v1zh-1ZM78 83h4l2 1h-7Zm143 0h2l2 1h-5zM97 82h2l2 1h-5Zm107 0h2l2 1h-5zm-71-1h2v1zh-1zm36 0h2v1zh-1zM23 74l2-2 2-1-2 1zm226-17h2v1zh-1ZM61 56h2l2 1h-5Zm178 0h2l2 1h-5ZM76 55h2v1zh-1Zm150 0h2v1zh-1zm-18-1h3l1 1h-5z" style="fill:#bce3f7"/><path id="path305" d="M143 283h16l8 1h-31Zm-40-1 3-1H79l-2-1H64h1v-1h-4l-5 1 1-1v-1h-4l-4 1 1-1v-1h-2l-3 1 1-1v-1h-4l-3-2-1-1h-4l1-1v-1l-2-1h-3l1-1-4-4-4-5-1 1h-1v-1l1-1-2-3-3-4v1h-1v-6h-1l-1 1 1-3v-2h-1l-1 1 1-3v-3l-1 1-1 2 1-6v-5h-1l-1 1 1-8v-8l-1 1-1 1 1-15v-14l-1 4v5-52 4l1 5v-38l1-6v1h1v-6l-1-5 1 1 1 2v-4l-1-4 1 1h1v-3l-1-3 1 1h1v-6l1 1h1v-2l1-1-1-1v-1h1l1 1v-4h1l1 1 1-2 1-2 3-3 3-2-1-1v-1h1l1 1 2-2 1-1-1 1h-1v-1l1-1h1v1l2-2 2-1v1l-1 1 4-2 5-2h2v-1l-1-1h12v-1l-1-1h2l2 1 1 1h3l2-1v-2l1 1 1 1h10v-1l1-1 4 1h4v-2h2v1l-1 1h1l1-1v-1h3v-1l-3-3-1-1h1l-2-3-4-6-2-3h-1l-1 1v-1l-1-7-1-5 1 1h1v-1c0-2 5-7 6-7h1v-1l-1-1 2 1h1v-1l-1-1h1l1 1h6l5 1v2l1 1 1-1h1v3h2v1l-1 1 3 3 3 4 1 1v2l1-1h1v4l1-1h1v1l1 3 1 3 1-1h1v1l-1 2 3 2 2 1-2-1h-1l2 3 3 3 22 1h22v-2h1l1 1 1-2v-4h1l1 1 2-4 1-4v-1h1v1l2-3 2-2-1-1v-1l1 1 3-5 3-5v-1h1l1 1 2-3 1-3 2-1h2v-1h-1 10l2 1 4 3 2 2 1-1v1l-1 1 1 1 2 1-1 5-1 5-1 2-2 1h2l-1 1-2 2-2 3-3 3 1 1v1l-1 1h-1v-1l1-1-1 1-2 2 1 1v1h-3l2 1 1 1 4-1h3l-1 1-2 1h10l5 1 5-1h2l1-1v1l-1 1h1l4 1h2l1-1 2-1h1v1l-1 1h3l3 1 1-1 1-1v2h2l1-1v2l5 1 5 1-1 1v1h1l2-1-1 1v1h4v1l-1 1 2 1 3 1h1v1l-1 1 2 2 3 2h1v1h-1l1 2 1 2 1-1h1v1l-1 1h1l1 2 1 1h-1l-1-1 1 1v2h1l1-1v6h1l1-1-1 4v3h1l2-1-2 1-1 1 1 3v3l1-1h1v1l-1 4-1 3 1 1h2l-1 2-1 2 1 3v7l1-1h1l-1 9v10h2v9l-1-2-1-2 1 3v21l1 18h-2v10l1 10h-1l-1 1v6l-1 5h2l-1 1h-1v4l-1 4 1-1h1v1l-2 4-1 3v3l1 2-2 1-1 4q0 3-4 7l-1 1v1l1 1h-2v3l-3 3-4 3v-1l-2 1-2 1 1 1v1h-4l1 1v1h-1l-1-1-1 1h-2v1l1 1h-6v1l1 1-3-1h-2v1l1 1-4-1h-4l1 1 2 1-6-1h-5v1l1 1-9-1h-8l1 1 1 1-13-1h-12l2 1 2 1H101Zm172-17 3-3zl-3 4zm-104-7 26-1h12v-2h3l5 1 2 1 3-1h3v-1l-1-1 7 1h6v-1l1-1h1v1l-1 1 3-1h4l-1-1v-1l2 1h2l4-3 4-2 3-4 2-3v-8l1 1 1 2v-6l-1-5 1 1h1v-6l-1-6h1l1 1v-8l1-40v-31l-1 1-1 2v-2l1-2h1l-1-6v-6l-1 1-1 2 1-7v-6h-1l-1 1 1-5v-5h-1l-1 1 1-4v-3h-1l-1 1v-2l1-2h-3v-1l1-1-2-1-1-1-3-4-3-2h-7v-2h-5l-4 1 1-1 1-1h-8l-8 1 2-1 1-1h-13l-13 1 3-1 2-1H102l2 1 2 1-13-1H80l2 1 1 1-8-1h-8v1l1 1-5-1h-4v2h-8l-4 3-4 3-1 3-2 3h1v1h-2v2l1 2-1-1h-1v8l1 1h-2v6l1 5h-1l-1-1v4l-1 4 1 2 1 2-1 1-1 1v1h1l1-1v4h-2v67l1-1h1v3h-1l-1-1 1 2v5l-1 1h1l1 1-1 2v2h2l-1 6v6h2l-1 3-1 2 1 1h2l-1 2v2l1-1h1v1l-1 2 1-1h1v1l4 5 4 4 1-1h1v2l3 1h7l2-1v1l1 1h10l3-1v1l-1 1h3l3 1 1-1 1-1 2 1 3 1-1-1-1-1h4v1l-1 1h34-1v1l3-1h4v1l1 1h19l18-1zm-42-52 2-1h-7l-2-2-2-1-1 1h-2l1-1h1l-2-2-1-2-1 1h-1l1-1v-2l-1-1-2-3v-1h-1l-1 1 1-2v-2h-1l-1 1 1-3v-2h-1l-1 1 1-3v-4h4l2 2 2 2-1 1h-1l1 1v1l1-1h1v1l-1 1 2 4 2 4 3 1 2 2 4 1h4l3-2 4-3-1-1v-1h1l1 1 1-2v-2l1-1h1l1-3 1-3h2v-1l-1-1h4l1 4 2 4 1-1h1l-1 2v1h1l1-1v1l2 4 1 2h4l-1 1v1h1l2-1v2h7l-1-1v-1h1l1 1 2-2 2-1-1-1v-1l1-1h1v1l-1 1 1-1 2-2-1-2v-1h1l1 1v-6l1 1h1v-2l-1-2 1 1h1v-2h1l2 1 1-1v-1l1 1h1l-1 2v1h1l1-1v2h-2v2l1 3-1-1h-1v2l1 2h-2v2l1 1h-1v-1l-2 2-1 2 1 1v1h-1l-1-1-2 2-1 3-2 1h-2l1 1v1l-2-1h-1v1l1 1-3-1h-3l2 1 2 1h-5v-1l-1-1h-3l-5-1-3-1-1-1-3-4-4-4-3 4-4 4-2 1h-2v1l1 1h-8l1 1 2 1h-8zm38 0h2v1zh-1zm97-5v-2l1 1v2l-1 2zM60 163v-1h1l2 1-2-1-2-2v-11l2-1 2-2h-1v-1l1 1h2v-1l-1-1 1 1h2l1-1 1-2 1 1h1l4-2 5-2 2-1 3-1 3-1v-1l2 1h2v-1l-1-1 2 1h2v-1l-1-1h1l1 1 4-1 4-2v-1l2 1h2v-1l-1-1 2 1h2v-1l-1-1 3 1 4 1 1-1 1-1-1 1 3 3 2 2 1 5v5h-2l-2 1-1 2h-4v1l1 1-2-1h-2v1l1 1-2-1h-2v1l1 1h-7v1l1 1-2-1h-2v1l1 1h-6v1l1 1-1-1h-2v2l-2-1h-2v1l1 1-1-1h-2l-1 1-1 2h-6l-1 1q-2 2-11 3h-6zm167 0-4-1h-1v-2h-2l-2 1-1-2-1-1h-2l-1 1v-1l-1-2-4-1h-6l1-1v-1h-1l-5-1-3-1-4-2-1-1h-2l-2 1v-1l-6-2-1-2v-2l-1-1h-1v-6l1 2 1 1v-2l-1-3h2l1-1v-1l-1-1 4-1h6l1-1v1l1 1h6v2l2-1h2v2h2l1-1-1 1v1h7v2h1l2-1v2h2l1-1-1 1v1h1l2-1-1 1v1h2l2-1-1 1v1h2l2-1v2h2l1-1-1 1v1h1l2-1-1 1v1h6v2l3 2 4 1v3l1 5 1 2h-1v-1l-2 3-1 4h-9zm64 23-1-1v5l1-2zM12 125l-1-1zv2h1v-1z" style="fill:#23ace4"/><path id="path303" d="M133 282h35l17 1h-69zm-45-1h12l5 1H83zm114 0h12l6 1h-23Zm-140-1-4-1 10 1 11 1zm158 1 12-1 12-1-5 1zm-173-3-6-3 4 1 8 2 5 1h-4zm202 0 6-1 6-3 6-3 5-5 6-4-5 4-4 5-7 4-7 3zl-5 1zm-213-5-3-1-7-7-6-6-3-6-3-6v-5l-1-4 2 6 2 7 3 5 3 6 5 5zq3 0 3 2zm95-15v-1h40v1l-1 1h-38zm148 0 1-1 2-2 1-2v1l-2 3-2 3zm-157-1-3-1h2l4 1 2 1h-1zm56 0 1-1h3l3 1h-4zm-98-1-3-1zh4v1l-1 1zm8 0-1-1zq3 0 1 1zm5 0h6l3 1H91Zm13 0h4l2 1h-8zm7 0h4l2 1h-7zm83 0h2l2 1h-5zm7 0h4l3 1h-9zm14 0-1-1h4q9 1 2 1l-3 1zm-151-1-2-1h6q11 1 2 1l-3 1zm-11-2-3-1zl6 1q4 1-1 1l-1 1Zm172 1h3l1 1h-5zm6 0h3l1 1h-5zm6 0 6-2 5-1-1 1-2 1-2 1-4 1zm-191-4-2-2zq3 0 3 2zm236 0 1-4h1l-1 2-1 3-1 1zm-29-3 5-5 1-5 1-8 1-3v4l-1 7-1 4-3 4-5 5-2 1Zm31-4 1-5 1-2v2l-1 5-1 3zM12 232l-1-9v-4l1 8zm26 4v-2l1-2v2q0 5-1 2m250-7v-5l1 4v3l-1 1-1 1zm-251-2v-4l1 2v4l-1 3zm226-5v-4l1 2v4l-1 3zm26-3v-5h1v10h-2zm-253-2v-2zv2h-1zm-25-1v-2zv2h-1zm25-2-1-1h1l1-1v1q0 3-1 1m229-36v38ZM10 188l-1-25 1-18 1-17v42zm26 22-1-2v-2h1zm130-4-7-3c-4-2-10-9-9-9l4 3 6 6 4 2h5v1l1 1zm124-1v-1zv2h-1zm-170-1-4-3-2-4-3-4-2-7-1-6 1-2 2-2-1 3-1 2 1 6 2 6 3 4 5 5 3 2 4 1 3 1h-6zm15 1q6-1 11-6l3-4-3 4-3 3-3 2-4 2h-4Zm38 0 5-2 4-1 4-6 4-5-3 5-3 5-4 3-4 2zh-2zm-138-4v-5l1 2v5l-1 3Zm255 0v-1zv2h-1zm0-5v-4l1 2v4l-1 2zm-166 0-3-3-3-5-2-5 3 4 2 5 2 2 4 3 2 1h-1zm10 0 3-1 4-4 3-3-2 3-2 3-3 2-5 2h-1zm34 1h2v1zh-2zm5 0 6-5 3-3-1 2-4 4-3 3zh-1zM35 186v-10l1 5v10l-1 5zm125 7-2-3zl1 2zm-6-8-2-5 5 9zm36 3 1-4 1-2v2l-1 4-1 2zm101-4 1-6-1 9-1 3zm-109 3 2-5 2-5h2q4 1 4 3v1l-1-1-1-1-2-1h-2l-2 5zm-37-2q1-5 3-5h1l-1 1zl-1 3Zm-31-6-2-2h3l1 2q1 3-2 0m-79-27v-14l1 7v14l-1 6zm26 11-1-2zl2 2h4l7-1 2-1-3 1-2 2h-9Zm165 0q-6-3 1-1l3 2h8l2-2 1-3v-3l1-4-1-2-1-2-3-2q-3 0-3-2l4 1 3 2 1 2 1 3v4l-1 3-2 3-2 2-4 1h-5zm-148-2 3-1 3-1-4 2-3 1zm142-1h2v1zh-1zm71-2-1-6v-2l1 2 1 2zl-1 4zm-232 1-1-5v-5l2-1 5-3 4-2-2 1-5 3-3 2v11zm156 0-1-1zl2 1 2 1h-1zm-128-1 4-2h2l-4 2zm119-2-8-4 15 5zm-112-1 13-5 16-6c1 1-5 4-28 11l-2 1zm99-4-1-1zl3 1 2 1h-5zm-6-2-1-1zl3 1 2 1h-2zm-8-3-2-3v-2l1 2zl3 2 4 1h-5zm111-4v-4l1 2v4l-1 2zm-220 1 5-3q7-2-2 2l-4 2Zm158-1-4-2 8 4zm-105-3v-3l1 1v3l-1 1zm-43 0 1-1h1v1zl-1 1Zm137-1q-9-3 2 0l5 2h-2zm-133-1 3-1h2l-2 1zh-1zm93-1v-2l1 1v2l-1 2zm113-1v-3l1 1v3l-1 1zm-195-2 8-2h1l-6 3q-14 5-3-1m-60 1 1-1h1v1l-2 1zm169-1-3-1 2 1 4 1 2 1h-1zm60-4q1-10 1 1l1 5h-2Zm-144 2-2-2h-4l-7 1-3 1 4-1 7-2h3zl2 3zm58 2 2-3 3-2h3q6 1 0 1h-3l-3 2zm-142-4v-5l1-4v5q0 10-1 4m156 1-2-1h1l3 1 2 1h-1zm-181-5v-2zv2h-1zm278-2v-8l1-1v10zm-278-6 1-9 1-4-1 8q0 15-1 5m252 0v-4l1 2v4l-1 2zm-226-3v-4l1 2v4l-1 3zm251-2v-2l1-2v2q0 5-1 2m-26-7-1-7-2-3-2-3 2 2 2 2 1 5 1 9-1 3Zm-224 3 1-3 1-5 1-2-1 5q0 8-1 5m249-4-1-7v-4l1 4 1 4v2l-1 3zM13 99l1-5 1-2-1 5q-1 9-1 2m29-6 5-5 4-3 4-1h4l-5 1-4 1-5 5-4 4zm242-5-1-4 3 7zM15 90l8-14 3-5 5-4 5-3-7 7-8 8-3 6zm238-1-3-3-3-1-3-1h1l4 1 8 6zM60 83h4l2 1h-7Zm7 0 1-1h6l7 1h-8zm167 0-16-1-12-1 14 1 19 1 5 1h-4zM84 81h6l4 1H81Zm11 0h2v1zh-1zm185 0-1-3-1-1h1l3 5zm-154-1h46l22 1h-91zm72 0h3l1 1h-5zm76-7-7-6-3-3c1 0 8 5 11 9l3 3h-1zM37 65l3-3 4-2h5l-5 1-6 3zm220-3-3-2h2l4 2zM50 59l2-1h3q9 1-1 1l-5 1zm196 0-3-1zh4v1l-1 1zM62 58h5l10-1h4v1l-1 1H62m172 0-7-1-6 1v-2h10l9 1 1 1 1 1h-3zM84 56h4l2 1h-7Zm130 0h4l3 1h-9ZM93 53l-1-2zl1 2zm34 0-3-3-1-2h1l5 7zm21 1h4l2 1h-8zm9 0h4l2 1h-7zm13 0h2v1zh-1zm3 0c0-2 9-17 19-31l4-5 3-1 2-1h8l-5 1-6 1a181 181 0 0 0-25 36m34-2q0-3 4-6l3-3-2 3-4 5-2 3zM87 45l-5-8-2-3v-5l1-4 2-3 2-2 3-2 4-2h8l3 2 2 2v1l-3-2-3-2h-4l-6 2h-2l-3 3-2 3v10l3 5zm35 1-1-1h1l1 1v1zm-6-9-3-6 8 12zm101 0 2-6 1-4v8l-2 2zM109 27l-2-3 1 1 4 5zm108-4-1-2-3-2q-6-2-1-1h2l3 4 2 4z" style="fill:#11a9e3"/></g></g></svg>